<?xml version="1.0" encoding="utf-8"?>
<!-- Generator: Adobe Illustrator 24.0.1, SVG Export Plug-In . SVG Version: 6.00 Build 0)  -->
<svg version="1.1" id="Слой_1" xmlns="http://www.w3.org/2000/svg" xmlns:xlink="http://www.w3.org/1999/xlink" x="0px" y="0px"
	 viewBox="0 0 512 512" style="enable-background:new 0 0 512 512;" xml:space="preserve">
<style type="text/css">
	.st0{opacity:0.5;}
</style>
<path class="st0" d="M300.1,1.1C225.2,9,160.6,61.3,137.7,132.5c-14.9,46.2-12.3,93.6,7.6,138.3l5,11.4l-70.1,70.1
	C14.1,418.6,10,422.9,6.5,429.9C-4.9,452.7-0.9,477.1,17,495c17.9,17.9,42.3,21.9,65.1,10.5c7-3.5,11.3-7.6,77.6-73.7l70.1-70.1
	l11.4,5c73.8,32.8,157.8,17.4,214.4-39.1c74.9-75,74.9-196.2,0-271.2C414.7,15.6,357.3-4.8,300.1,1.1z M351.5,35
	c35.5,7.5,68,26.7,90.4,53.3c17.8,21.2,29.3,44.9,35.2,72.7c2,9,2.3,13.5,2.3,31s-0.3,22-2.3,31c-13.9,64.9-61.2,112.2-126.1,126.1
	c-9,2-13.5,2.3-31,2.3s-22-0.3-31-2.3c-15.1-3.2-26.8-7.3-40.5-14.1c-44.4-22.1-74.9-62-85.6-112c-2-9-2.3-13.5-2.3-31
	s0.3-22,2.3-31c11.7-54.6,48.1-98.1,98.8-118c10.9-4.3,26.4-8.4,37.8-9.9C311.1,31.5,339.9,32.6,351.5,35z M178.5,321.1
	c5.9,6.6,15.3,15.4,23,21.6l4,3.2L139,412.5c-47.8,47.8-67.8,67.2-71,68.8c-6.1,3-16.6,3-23.1,0.1c-10.3-4.8-16.3-14.3-16.4-25.9
	c0-12.5-2.3-9.9,70.9-83.3l66.1-66.3l3.5,4.2C170.9,312.5,175.2,317.4,178.5,321.1z"/>
<path class="st0" d="M305,81.1c-43.1,5.6-80.3,38-92.5,80.4c-3.5,12-5.3,29.1-3.6,33.3c1.7,4,6,5.9,10,4.2c3.7-1.5,4.8-4.4,5.5-15.1
	c1.5-22.2,12.1-44.4,28.9-60.6c16.6-16,37.2-25.5,58.6-26.9c4.7-0.3,9.8-1,11.3-1.6c3.6-1.3,5.4-5.9,3.9-9.7
	C325,80.1,320,79.2,305,81.1z"/>
</svg>
